<?xml version="1.0" standalone="no"?>
<!DOCTYPE svg PUBLIC "-//W3C//DTD SVG 20010904//EN"
 "http://www.w3.org/TR/2001/REC-SVG-20010904/DTD/svg10.dtd">
<svg version="1.0" xmlns="http://www.w3.org/2000/svg"
 width="531.000000pt" height="318.000000pt" viewBox="0 0 531.000000 318.000000"
 preserveAspectRatio="xMidYMid meet">
<metadata>
Created by potrace 1.10, written by Peter Selinger 2001-2011
</metadata>
<g transform="translate(0.000000,318.000000) scale(0.100000,-0.100000)"
fill="#000000" stroke="none">
<path d="M2540 3171 c0 -5 -20 -29 -44 -53 -47 -46 -59 -68 -82 -157 -13 -48
-13 -57 1 -77 21 -32 56 -39 94 -20 26 14 31 22 31 52 0 19 -5 45 -11 56 -17
31 7 119 42 158 37 40 36 50 -1 50 -16 0 -30 -4 -30 -9z"/>
<path d="M1866 3034 c-20 -20 -20 -61 0 -132 17 -62 24 -80 79 -194 40 -83 74
-110 113 -89 21 11 52 54 52 72 0 6 -31 43 -69 83 -80 83 -131 161 -131 202 0
38 -10 74 -20 74 -5 0 -16 -7 -24 -16z"/>
<path d="M3155 2909 c-60 -14 -149 -46 -221 -79 -63 -28 -64 -29 -64 -68 0
-48 24 -72 71 -72 25 0 41 8 59 28 35 38 124 104 160 118 8 3 22 9 31 14 9 4
41 11 72 15 56 7 76 26 42 39 -31 12 -112 15 -150 5z"/>
<path d="M2420 2761 c-107 -21 -183 -63 -250 -139 -28 -31 -65 -86 -82 -122
-28 -58 -31 -75 -31 -157 -1 -94 6 -118 57 -221 34 -71 43 -85 86 -134 98
-114 227 -177 304 -150 18 7 40 12 49 12 40 0 154 79 213 147 22 27 55 79 73
116 31 63 33 74 29 140 -8 114 -90 272 -166 324 -42 28 -102 53 -127 53 -27 0
-132 -33 -172 -53 -52 -28 -123 -98 -144 -145 -57 -128 29 -307 168 -347 66
-19 92 -15 134 23 23 21 32 39 36 73 5 41 2 49 -24 74 -18 19 -48 33 -79 40
-45 9 -49 12 -52 42 -3 28 3 36 39 63 80 57 110 53 163 -24 42 -61 56 -102 56
-165 0 -52 -25 -97 -89 -162 -114 -114 -185 -117 -302 -14 -49 44 -92 101
-130 175 -29 58 -33 74 -33 145 0 98 28 165 101 241 51 53 102 81 194 108 148
43 319 -10 412 -126 17 -22 42 -52 55 -65 12 -13 22 -31 22 -39 0 -8 7 -17 15
-20 8 -3 17 -15 21 -26 4 -12 10 -16 15 -11 6 6 4 21 -6 39 -8 16 -15 35 -15
42 0 6 -4 12 -8 12 -5 0 -15 15 -24 33 -22 45 -94 123 -146 158 -56 38 -182
79 -236 78 -22 0 -79 -8 -126 -18z m103 -256 c1 -5 -13 -15 -31 -21 -19 -6
-47 -24 -62 -40 -16 -16 -36 -35 -45 -42 -8 -7 -15 -25 -15 -40 0 -33 54 -122
73 -122 21 0 50 -37 43 -55 -5 -13 -15 -15 -53 -9 -27 3 -52 10 -57 15 -9 8
-44 98 -53 135 -6 25 36 110 69 141 41 38 126 63 131 38z m138 -5 c26 -14 24
-32 -3 -28 -13 2 -24 11 -26 21 -4 20 2 21 29 7z"/>
<path d="M3121 2364 c-24 -30 -24 -34 -12 -67 11 -28 57 -48 86 -36 11 4 43 8
71 8 39 1 60 -5 97 -29 49 -31 77 -38 77 -20 0 6 -4 16 -10 23 -5 7 -22 27
-36 45 -29 36 -63 57 -139 84 -71 26 -109 24 -134 -8z"/>
<path d="M1610 2321 c0 -48 121 -133 233 -163 45 -12 48 -11 71 12 40 41 38
77 -5 109 -29 22 -32 22 -70 7 -58 -24 -89 -20 -149 19 -63 39 -80 43 -80 16z"/>
<path d="M2966 1914 c-38 -39 -33 -65 24 -130 58 -67 110 -164 110 -208 0 -82
32 -103 51 -33 9 33 8 58 -4 122 -31 161 -87 273 -138 275 -9 0 -28 -12 -43
-26z"/>
<path d="M2078 1853 c-10 -2 -18 -8 -18 -13 0 -13 -150 -102 -190 -112 -19 -5
-64 -14 -99 -19 -69 -9 -76 -12 -67 -27 15 -25 100 -33 191 -18 203 33 285 69
285 127 0 46 -49 76 -102 62z"/>
<path d="M2531 1684 c-22 -16 -23 -21 -17 -90 8 -85 -5 -139 -40 -178 -42 -45
-20 -63 34 -28 64 41 116 129 128 219 5 44 3 54 -15 72 -25 25 -58 27 -90 5z"/>
<path d="M352 1203 c-101 -30 -182 -133 -182 -231 0 -41 36 -121 74 -160 66
-70 179 -92 270 -52 44 20 46 23 46 60 0 33 -3 40 -19 40 -11 0 -23 -4 -26
-10 -3 -5 -30 -17 -59 -25 -43 -13 -58 -13 -87 -3 -80 29 -109 70 -109 153 0
65 15 98 62 134 37 29 148 30 185 1 34 -26 51 -25 59 4 10 41 -11 64 -82 86
-76 23 -64 23 -132 3z"/>
<path d="M3793 1202 c-58 -24 -83 -59 -83 -118 0 -38 5 -53 27 -76 15 -15 32
-28 39 -28 6 0 17 -7 24 -15 7 -8 20 -15 29 -15 22 0 81 -55 81 -75 0 -21 -44
-65 -65 -65 -24 0 -72 27 -78 45 -8 19 -51 20 -66 1 -18 -22 3 -62 48 -91 48
-30 118 -34 159 -8 52 33 71 64 72 119 0 63 -21 89 -107 134 -35 18 -70 44
-78 57 -15 22 -15 26 0 49 20 31 62 32 100 2 29 -23 48 -19 69 15 15 24 -17
54 -77 72 -28 8 -51 15 -51 14 -1 0 -20 -8 -43 -17z"/>
<path d="M1928 1198 c-82 -22 -168 -133 -168 -217 0 -51 32 -129 68 -167 84
-88 249 -98 328 -20 29 30 54 94 54 141 l0 42 -82 6 c-91 7 -116 -3 -103 -42
5 -18 14 -21 61 -21 42 0 54 -3 54 -15 0 -45 -68 -95 -130 -95 -42 0 -99 27
-131 63 -26 29 -29 38 -29 103 0 70 1 72 41 112 30 31 50 42 77 44 54 4 108
-7 127 -26 21 -20 39 -20 59 0 23 22 20 40 -11 62 -59 41 -135 51 -215 30z"/>
<path d="M4068 1103 c-3 -52 -5 -58 -26 -61 -44 -6 -35 -62 9 -62 18 0 19 -9
19 -115 0 -98 3 -117 16 -122 9 -3 24 -2 33 4 13 9 16 30 16 119 0 107 0 108
25 114 17 4 26 14 28 32 3 21 -2 26 -25 31 -28 5 -29 8 -28 59 0 52 0 53 -32
56 l-32 3 -3 -58z"/>
<path d="M727 1047 c-21 -7 -53 -27 -72 -46 -33 -32 -35 -38 -35 -98 0 -64 0
-64 51 -114 46 -45 54 -49 98 -49 37 0 57 7 87 28 63 46 69 58 69 134 0 66 -1
70 -36 102 -20 19 -53 39 -75 45 -45 13 -38 13 -87 -2z m113 -89 c29 -35 26
-93 -6 -123 -14 -13 -35 -27 -45 -30 -27 -9 -73 19 -93 57 -18 33 -18 36 -1
72 10 21 28 42 39 47 33 14 85 2 106 -23z"/>
<path d="M1107 1045 c-20 -10 -35 -12 -52 -5 -51 19 -55 10 -55 -140 0 -147 7
-169 50 -155 22 7 22 6 20 120 -1 97 9 116 71 124 38 5 44 9 47 32 2 20 -2 28
-20 33 -31 8 -29 8 -61 -9z"/>
<path d="M1320 1048 c-45 -13 -98 -70 -106 -115 -15 -78 17 -143 87 -176 70
-34 132 -18 191 48 100 111 -23 286 -172 243z m82 -67 c13 -5 32 -25 43 -45
19 -36 19 -36 0 -72 -21 -39 -66 -68 -93 -60 -9 3 -29 17 -44 31 -41 37 -39
94 3 129 32 28 53 31 91 17z"/>
<path d="M2343 1047 c-62 -23 -92 -96 -77 -192 9 -65 60 -115 117 -115 23 0
48 7 58 16 16 14 23 15 49 4 57 -23 60 -15 60 139 0 153 -5 164 -58 138 -23
-10 -32 -10 -62 5 -39 21 -43 21 -87 5z m100 -68 c32 -17 37 -28 37 -86 0 -48
-2 -53 -35 -73 -38 -23 -59 -21 -93 11 -17 15 -22 31 -22 69 0 41 4 52 26 69
30 24 55 26 87 10z"/>
<path d="M2763 1047 c-17 -7 -35 -15 -38 -19 -4 -4 -18 0 -31 8 -16 11 -28 13
-40 6 -14 -8 -17 -29 -18 -141 -1 -73 1 -136 4 -140 12 -18 48 -21 64 -5 13
13 15 28 10 79 -9 91 0 132 37 150 22 12 34 13 49 5 35 -19 43 -48 36 -137 -8
-90 0 -113 35 -113 29 0 37 28 32 115 -5 75 -4 83 19 109 26 30 70 38 91 17 8
-8 11 -47 9 -116 -2 -95 0 -105 18 -115 22 -12 59 2 61 23 5 60 -5 208 -16
233 -17 41 -69 61 -119 44 -19 -6 -37 -17 -40 -25 -7 -19 -45 -19 -52 -1 -3 8
-19 19 -36 25 -36 13 -34 13 -75 -2z"/>
<path d="M3270 1049 c-19 -6 -50 -26 -67 -46 -31 -34 -33 -41 -33 -107 1 -59
5 -75 23 -97 36 -42 73 -59 124 -59 85 1 168 80 114 109 -20 11 -51 5 -51 -10
0 -16 -60 -40 -83 -33 -31 9 -67 44 -67 66 0 16 10 18 120 18 136 0 138 1 103
77 -22 46 -48 70 -88 78 -16 4 -37 8 -45 10 -8 2 -31 -1 -50 -6z m79 -60 c23
-8 31 -17 31 -35 0 -23 -3 -24 -70 -24 -49 0 -70 4 -70 13 0 20 14 35 40 46
33 13 32 13 69 0z"/>
<path d="M4335 1047 c-74 -29 -115 -83 -115 -152 0 -46 38 -106 85 -134 128
-75 282 67 216 201 -35 72 -120 111 -186 85z m106 -83 c22 -20 29 -58 18 -99
-11 -37 -66 -71 -99 -60 -25 8 -70 66 -70 89 0 28 30 76 53 86 28 12 76 4 98
-16z"/>
<path d="M4709 1041 c-21 -17 -25 -17 -47 -3 -46 30 -53 11 -54 -139 -1 -74 2
-141 6 -147 10 -16 43 -15 53 1 4 6 8 53 8 103 0 107 14 134 71 134 43 0 67
36 38 57 -25 18 -48 16 -75 -6z"/>
<path d="M4927 1049 c-24 -6 -51 -23 -72 -46 -33 -36 -35 -42 -35 -108 1 -58
5 -75 23 -96 56 -64 137 -78 205 -35 59 37 66 49 44 77 l-19 23 -48 -32 c-27
-18 -52 -32 -57 -32 -19 0 -68 31 -78 49 -20 39 -13 41 110 41 l120 0 0 25 c0
90 -96 156 -193 134z m72 -60 c23 -8 31 -17 31 -35 0 -23 -3 -24 -63 -24 -35
0 -67 3 -70 6 -10 11 13 44 36 54 29 12 29 12 66 -1z"/>
<path d="M530 382 c0 -15 4 -32 8 -37 5 -6 20 -39 32 -75 13 -36 30 -76 37
-90 7 -14 13 -34 13 -46 0 -18 33 -64 46 -64 16 0 44 23 44 36 0 9 6 30 14 47
7 18 24 61 37 97 12 36 28 74 36 85 18 26 17 64 -2 72 -26 9 -50 -23 -69 -89
-37 -136 -66 -185 -74 -126 -2 13 -7 32 -12 43 -5 11 -18 52 -30 92 -12 39
-28 74 -36 77 -32 12 -44 6 -44 -22z"/>
<path d="M1959 394 c-7 -9 -12 -31 -11 -49 l3 -34 -49 6 c-44 5 -51 3 -79 -25
-53 -53 -53 -123 0 -187 28 -35 32 -36 76 -31 25 3 58 6 73 6 l26 0 4 147 c5
172 -6 212 -43 167z m-19 -154 c13 -25 13 -63 -2 -95 -9 -19 -19 -25 -44 -25
-30 0 -34 4 -44 40 -13 48 -5 86 23 105 23 16 50 6 67 -25z"/>
<path d="M2387 389 c-5 -18 8 -54 44 -121 5 -10 9 -23 9 -30 1 -7 9 -31 20
-53 11 -22 19 -47 20 -56 0 -9 8 -27 19 -40 16 -21 22 -22 45 -11 17 7 26 20
26 34 0 13 6 35 14 50 8 15 17 40 21 57 4 17 11 33 16 36 5 4 9 14 9 23 0 9 7
30 15 46 17 32 20 72 5 81 -18 11 -50 -20 -56 -55 -4 -19 -10 -39 -14 -45 -4
-5 -10 -23 -13 -40 -3 -16 -14 -50 -25 -75 l-20 -45 -7 30 c-3 17 -10 39 -15
50 -5 11 -16 47 -26 80 -9 33 -23 70 -31 83 -17 28 -49 29 -56 1z"/>
<path d="M2708 399 c-10 -5 -18 -19 -18 -29 0 -15 7 -20 29 -20 36 0 46 13 31
40 -12 23 -18 24 -42 9z"/>
<path d="M2947 389 c-11 -15 -13 -29 -7 -50 9 -32 2 -43 -20 -28 -21 13 -72
11 -90 -4 -51 -41 -65 -127 -30 -184 25 -42 54 -56 99 -49 20 3 48 6 63 6 l26
0 4 147 c5 175 -7 217 -45 162z m-13 -153 c20 -76 -5 -121 -66 -117 -22 1 -42
62 -33 101 13 60 84 71 99 16z"/>
<path d="M3522 398 c-19 -19 -14 -46 9 -53 27 -9 42 6 37 36 -3 27 -27 36 -46
17z"/>
<path d="M1343 383 c-7 -3 -13 -18 -13 -34 0 -16 -4 -29 -10 -29 -12 0 -13
-33 -1 -46 5 -5 11 -49 13 -97 3 -91 11 -107 51 -107 24 0 33 28 13 43 -26 19
-29 123 -4 165 17 28 18 33 4 38 -9 4 -16 18 -16 34 0 28 -14 41 -37 33z"/>
<path d="M915 323 c-11 -3 -35 -21 -52 -40 -29 -31 -33 -42 -33 -92 1 -77 29
-112 96 -118 40 -4 54 -1 77 17 15 12 27 28 27 36 0 25 -28 27 -56 5 -29 -23
-60 -20 -81 8 -20 28 2 40 68 34 46 -5 63 -3 70 8 25 39 -5 109 -57 134 -18 8
-34 14 -36 14 -1 -1 -12 -4 -23 -6z m56 -64 c28 -28 9 -51 -40 -47 -44 4 -56
38 -19 56 32 15 35 15 59 -9z"/>
<path d="M1168 323 c-10 -2 -18 -8 -18 -13 0 -5 -15 -6 -34 -3 l-34 5 -4 -108
c-3 -88 -1 -111 11 -122 28 -23 36 -6 41 82 5 93 14 108 60 104 24 -3 25 -5
28 -95 l3 -93 29 0 30 0 0 83 c0 92 -20 140 -66 157 -14 6 -26 9 -27 9 -1 -1
-10 -3 -19 -6z"/>
<path d="M1495 315 c-34 -18 -45 -32 -45 -57 0 -25 28 -22 50 4 15 19 22 21
46 13 46 -16 35 -36 -31 -58 -33 -11 -65 -27 -72 -36 -21 -28 -15 -68 13 -90
29 -23 59 -26 98 -11 18 6 34 6 51 -2 19 -8 28 -8 40 2 13 11 14 15 1 29 -9
10 -15 45 -18 93 -3 61 -8 82 -23 98 -28 28 -74 34 -110 15z m81 -139 c15 -38
-49 -82 -81 -56 -24 20 -18 39 18 54 42 19 56 19 63 2z"/>
<path d="M2120 322 c-39 -17 -59 -41 -73 -83 -19 -56 -9 -108 30 -146 21 -22
31 -25 72 -21 67 7 87 30 95 111 7 65 7 66 -26 101 -34 36 -71 50 -98 38z m48
-58 c41 -29 23 -54 -39 -54 -40 0 -50 27 -18 51 29 23 29 23 57 3z m47 -105
c5 -6 5 -9 -1 -9 -6 0 -21 -9 -34 -20 -29 -25 -42 -25 -71 -2 -14 12 -20 25
-16 35 5 13 16 15 59 10 29 -3 57 -9 63 -14z"/>
<path d="M3110 322 c-54 -24 -80 -69 -80 -135 0 -52 30 -104 65 -113 60 -15
145 26 131 62 -7 17 -41 10 -64 -12 -18 -19 -35 -18 -63 4 -13 12 -20 25 -16
35 5 12 18 14 68 11 70 -4 79 2 79 53 0 57 -74 116 -120 95z m54 -63 c35 -27
19 -49 -36 -49 -49 0 -62 24 -27 51 30 23 31 23 63 -2z"/>
<path d="M3340 323 c-38 -16 -80 -83 -80 -128 0 -32 26 -84 53 -108 32 -28 91
-22 129 12 31 28 33 34 33 95 0 60 -3 68 -30 96 -30 29 -77 45 -105 33z m73
-71 c22 -20 23 -89 0 -114 -22 -24 -69 -24 -83 1 -5 11 -10 40 -10 65 0 39 4
47 27 60 29 15 36 13 66 -12z"/>
<path d="M3925 321 c-36 -16 -64 -50 -71 -87 -17 -93 24 -164 95 -164 52 0
105 38 94 67 -7 18 -21 16 -50 -7 -32 -25 -44 -25 -77 1 -41 32 -19 50 54 44
47 -4 61 -1 74 14 15 16 16 25 6 58 -18 58 -78 94 -125 74z m63 -59 c38 -29
20 -54 -37 -50 -56 4 -68 28 -24 52 35 19 33 19 61 -2z"/>
<path d="M4155 321 c-45 -19 -60 -49 -60 -121 0 -59 3 -72 25 -95 21 -22 32
-26 72 -24 59 3 68 -4 38 -36 -28 -30 -61 -32 -85 -5 -21 24 -41 26 -49 5 -9
-25 33 -45 94 -45 91 1 94 7 98 167 4 140 -3 168 -32 144 -12 -10 -20 -10 -38
3 -25 18 -34 19 -63 7z m75 -71 c28 -28 27 -87 -2 -117 -28 -30 -52 -29 -74 5
-51 76 15 173 76 112z"/>
<path d="M4372 296 c-36 -33 -37 -37 -37 -101 0 -63 2 -69 33 -96 59 -53 129
-33 171 48 24 48 -1 126 -52 161 -46 30 -71 28 -115 -12z m93 -32 c21 -13 25
-24 25 -62 0 -78 -57 -110 -99 -56 -29 37 -26 70 8 105 34 34 34 34 66 13z"/>
<path d="M4631 323 c-34 -14 -51 -39 -51 -76 0 -35 3 -39 46 -57 25 -11 52
-20 60 -20 24 0 29 -31 9 -46 -26 -20 -39 -18 -73 11 -25 21 -31 23 -42 11 -8
-11 -9 -20 0 -35 15 -29 42 -41 90 -41 56 0 106 46 95 88 -8 34 -3 30 -76 57
-71 25 -82 39 -45 57 23 10 29 8 49 -10 41 -39 88 -22 55 20 -33 39 -79 56
-117 41z"/>
<path d="M3527 313 c-4 -3 -7 -63 -7 -133 0 -114 -2 -129 -20 -145 -29 -26
-25 -35 15 -35 28 0 37 5 43 23 6 17 7 178 3 285 -1 13 -23 17 -34 5z"/>
<path d="M3618 303 c-3 -10 -2 -56 0 -103 6 -107 25 -135 87 -126 22 3 53 7
69 8 l28 3 2 115 c1 109 0 115 -19 115 -18 0 -21 -8 -25 -82 -4 -58 -10 -88
-22 -103 -22 -25 -33 -25 -58 0 -17 17 -20 33 -20 105 0 77 -2 85 -19 85 -11
0 -21 -8 -23 -17z"/>
<path d="M2697 304 c-4 -4 -7 -56 -7 -116 l0 -108 30 0 31 0 -3 113 c-3 104
-4 112 -23 115 -12 2 -24 0 -28 -4z"/>
</g>
</svg>
